<svg xmlns="http://www.w3.org/2000/svg" viewBox="0 0 800 400">
  <defs>
    <linearGradient id="bg3" x1="0%" y1="0%" x2="100%" y2="100%">
      <stop offset="0%" style="stop-color:#1E3A5F"/>
      <stop offset="100%" style="stop-color:#2A5080"/>
    </linearGradient>
  </defs>
  <rect width="800" height="400" fill="url(#bg3)"/>
  <!-- CV Document -->
  <rect x="280" y="40" width="240" height="310" rx="12" fill="white" opacity="0.95"/>
  <!-- Photo placeholder -->
  <circle cx="400" cy="95" r="30" fill="#E5E7EB"/>
  <circle cx="400" cy="88" r="12" fill="#9CA3AF"/>
  <ellipse cx="400" cy="110" rx="18" ry="10" fill="#9CA3AF"/>
  <!-- Name -->
  <rect x="340" y="135" width="120" height="8" rx="4" fill="#1E3A5F"/>
  <rect x="355" y="150" width="90" height="5" rx="2" fill="#6B7280" opacity="0.5"/>
  <!-- Divider -->
  <line x1="310" y1="168" x2="490" y2="168" stroke="#E5E7EB" stroke-width="1"/>
  <!-- Section: Experience -->
  <rect x="310" y="180" width="70" height="6" rx="3" fill="#C1121F" opacity="0.8"/>
  <rect x="310" y="195" width="160" height="4" rx="2" fill="#6B7280" opacity="0.3"/>
  <rect x="310" y="205" width="140" height="4" rx="2" fill="#6B7280" opacity="0.3"/>
  <rect x="310" y="215" width="155" height="4" rx="2" fill="#6B7280" opacity="0.3"/>
  <!-- Section: Skills -->
  <rect x="310" y="235" width="50" height="6" rx="3" fill="#D4A843"/>
  <rect x="310" y="250" width="40" height="16" rx="8" fill="#1E3A5F" opacity="0.1"/>
  <rect x="358" y="250" width="55" height="16" rx="8" fill="#1E3A5F" opacity="0.1"/>
  <rect x="420" y="250" width="45" height="16" rx="8" fill="#1E3A5F" opacity="0.1"/>
  <rect x="310" y="272" width="50" height="16" rx="8" fill="#1E3A5F" opacity="0.1"/>
  <rect x="368" y="272" width="60" height="16" rx="8" fill="#1E3A5F" opacity="0.1"/>
  <!-- Section: Education -->
  <rect x="310" y="300" width="60" height="6" rx="3" fill="#C1121F" opacity="0.6"/>
  <rect x="310" y="315" width="150" height="4" rx="2" fill="#6B7280" opacity="0.3"/>
  <rect x="310" y="325" width="120" height="4" rx="2" fill="#6B7280" opacity="0.3"/>
  <!-- Pen -->
  <g transform="translate(560,140) rotate(30)">
    <rect x="-4" y="-60" width="8" height="70" rx="2" fill="#D4A843"/>
    <polygon points="-4,10 4,10 0,20" fill="#333"/>
  </g>
  <!-- Stars -->
  <g transform="translate(160,100)" opacity="0.4">
    <polygon points="0,-12 3,-4 12,-4 5,2 7,10 0,6 -7,10 -5,2 -12,-4 -3,-4" fill="#D4A843"/>
  </g>
  <g transform="translate(650,80)" opacity="0.3">
    <polygon points="0,-10 2.5,-3 10,-3 4,1.5 6,8.5 0,5 -6,8.5 -4,1.5 -10,-3 -2.5,-3" fill="white"/>
  </g>
  <text x="400" y="380" text-anchor="middle" fill="white" font-family="system-ui" font-size="20" font-weight="bold" opacity="0.9">Der perfekte Lebenslauf</text>
</svg>
